<?xml version="1.0" encoding="UTF-8" standalone="no"?>
<!-- Created with Inkscape (http://www.inkscape.org/) -->

<svg
   xmlns:dc="http://purl.org/dc/elements/1.1/"
   xmlns:cc="http://creativecommons.org/ns#"
   xmlns:rdf="http://www.w3.org/1999/02/22-rdf-syntax-ns#"
   xmlns:svg="http://www.w3.org/2000/svg"
   xmlns="http://www.w3.org/2000/svg"
   xmlns:sodipodi="http://sodipodi.sourceforge.net/DTD/sodipodi-0.dtd"
   xmlns:inkscape="http://www.inkscape.org/namespaces/inkscape"
   id="svg2"
   version="1.1"
   inkscape:version="0.48.3.1 r9886"
   width="129.95875"
   height="193.48125"
   xml:space="preserve"
   sodipodi:docname="UJM-LOGOS-CMJN-10.ai"><metadata
     id="metadata8"><rdf:RDF><cc:Work
         rdf:about=""><dc:format>image/svg+xml</dc:format><dc:type
           rdf:resource="http://purl.org/dc/dcmitype/StillImage" /><dc:title></dc:title></cc:Work></rdf:RDF></metadata><defs
     id="defs6"><clipPath
       clipPathUnits="userSpaceOnUse"
       id="clipPath20"><path
         d="m 0,154.785 103.967,0 L 103.967,0 0,0 0,154.785 z"
         id="path22" /></clipPath></defs><sodipodi:namedview
     pagecolor="#ffffff"
     bordercolor="#666666"
     borderopacity="1"
     objecttolerance="10"
     gridtolerance="10"
     guidetolerance="10"
     inkscape:pageopacity="0"
     inkscape:pageshadow="2"
     inkscape:window-width="640"
     inkscape:window-height="480"
     id="namedview4"
     showgrid="false"
     inkscape:zoom="1.2197565"
     inkscape:cx="64.979378"
     inkscape:cy="96.740623"
     inkscape:window-x="0"
     inkscape:window-y="27"
     inkscape:window-maximized="0"
     inkscape:current-layer="g10" /><g
     id="g10"
     inkscape:groupmode="layer"
     inkscape:label="UJM-LOGOS-CMJN-10"
     transform="matrix(1.25,0,0,-1.25,0,193.48125)"><g
       id="g12"
       transform="translate(74.0955,110.6344)"><path
         d="m 0,0 0,14.668 -44.139,0.077 0,-14.741 11.812,-7.451 -11.812,-7.291 0,-14.741 44.139,-0.077 0,14.669 -25.445,0 -0.084,0.144 10.787,7.301 -10.783,7.295 L -25.439,0 0,0 z"
         style="fill:#ea5822;fill-opacity:1;fill-rule:nonzero;stroke:none"
         id="path14" /></g><g
       id="g16"><g
         id="g18"
         clip-path="url(#clipPath20)"><g
           id="g24"
           transform="translate(88.704,125.3023)"><path
             d="m 0,0 0,-73.319 c 0,-20.248 -16.473,-36.72 -36.721,-36.72 -20.247,0 -36.72,16.472 -36.72,36.72 l 0,73.319 -15.263,0 0,-73.319 c 0,-28.664 23.32,-51.983 51.983,-51.983 28.664,0 51.984,23.319 51.984,51.983 L 15.263,0 0,0 z"
             style="fill:#ea5822;fill-opacity:1;fill-rule:nonzero;stroke:none"
             id="path26" /></g><path
           d="m 103.967,154.785 -103.967,0 0,-14.742 103.967,0 0,14.742 z"
           style="fill:#2b2b2a;fill-opacity:1;fill-rule:nonzero;stroke:none"
           id="path28" /><g
           id="g30"
           transform="translate(51.9833,73.7072)"><path
             d="m 0,0 -22.112,0 0,-14.741 22.112,0 c 4.071,0 7.371,-3.3 7.371,-7.371 0,-4.071 -3.3,-7.371 -7.371,-7.371 l -7.371,0 0,-14.741 7.371,0 c 12.212,0 22.112,9.9 22.112,22.112 C 22.112,-9.9 12.212,0 0,0"
             style="fill:#ea5822;fill-opacity:1;fill-rule:nonzero;stroke:none"
             id="path32" /></g></g></g></g></svg>